<?xml version="1.0" encoding="UTF-8" standalone="no"?>
<!-- Created with Inkscape (http://www.inkscape.org/) -->

<svg
   width="176.7888mm"
   height="97.717613mm"
   viewBox="0 0 176.7888 97.717613"
   version="1.1"
   id="svg1"
   xmlns:xlink="http://www.w3.org/1999/xlink"
   xmlns="http://www.w3.org/2000/svg"
   xmlns:svg="http://www.w3.org/2000/svg">
  <defs
     id="defs1">
    <linearGradient
       id="linearGradient18">
      <stop
         style="stop-color:#d40000;stop-opacity:1;"
         offset="0"
         id="stop18" />
      <stop
         style="stop-color:#615200;stop-opacity:0.94174755;"
         offset="1"
         id="stop19" />
    </linearGradient>
    <linearGradient
       id="linearGradient16">
      <stop
         style="stop-color:#d40000;stop-opacity:1;"
         offset="0"
         id="stop16" />
      <stop
         style="stop-color:#000e83;stop-opacity:1;"
         offset="1"
         id="stop17" />
    </linearGradient>
    <linearGradient
       id="linearGradient14">
      <stop
         style="stop-color:#d40000;stop-opacity:1;"
         offset="0"
         id="stop14" />
      <stop
         style="stop-color:#6c36e4;stop-opacity:0.83009708;"
         offset="1"
         id="stop15" />
    </linearGradient>
    <linearGradient
       id="linearGradient12">
      <stop
         style="stop-color:#d40000;stop-opacity:1;"
         offset="0"
         id="stop12" />
      <stop
         style="stop-color:#009bfa;stop-opacity:1;"
         offset="1"
         id="stop13" />
    </linearGradient>
    <linearGradient
       xlink:href="#linearGradient12"
       id="linearGradient13"
       x1="43.150578"
       y1="97.284943"
       x2="18.306307"
       y2="61.718403"
       gradientUnits="userSpaceOnUse" />
    <linearGradient
       xlink:href="#linearGradient14"
       id="linearGradient15"
       x1="64.595108"
       y1="56.74955"
       x2="86.039642"
       y2="123.69833"
       gradientUnits="userSpaceOnUse" />
    <linearGradient
       xlink:href="#linearGradient16"
       id="linearGradient17"
       x1="117.42188"
       y1="81.593819"
       x2="146.18893"
       y2="89.177864"
       gradientUnits="userSpaceOnUse" />
    <linearGradient
       xlink:href="#linearGradient18"
       id="linearGradient19"
       x1="161.88005"
       y1="73.74826"
       x2="170.24864"
       y2="118.20644"
       gradientUnits="userSpaceOnUse" />
  </defs>
  <g
     id="layer1"
     transform="translate(-13.662531,-53.219237)">
    <path
       style="fill:url(#linearGradient13);fill-opacity:1;stroke-width:0.264583"
       id="path2"
       d="m 31.158278,68.581928 c -1.192784,0.487571 -2.49432,0.822272 -3.591235,1.521698 -0.858972,0.547706 -1.356149,1.09384 -2.089413,1.794888 -0.31038,0.469485 -0.662802,0.913736 -0.931139,1.408457 -1.174057,2.164543 -1.676521,4.659609 -1.415602,7.108571 0.05824,0.546684 0.203926,1.080481 0.30589,1.620721 0.195206,0.507952 0.344627,1.035963 0.585618,1.523862 1.706002,3.4539 5.409612,5.06109 8.552719,6.874904 2.748285,1.39817 5.027361,1.193565 7.97062,0.850601 1.808255,-0.17599 3.596008,-0.59949 5.420217,-0.600802 1.377019,-0.0011 1.786819,0.109498 3.16941,0.306422 1.098298,-0.84186 2.292564,1.736092 3.288503,1.140854 0.483764,-0.289129 -1.556493,-1.332712 -1.504444,-0.771538 0.06059,0.653211 1.059547,0.777705 1.545854,1.218004 1.081088,0.97881 1.662436,1.78308 2.572547,2.906389 1.266896,1.866334 2.457921,3.840512 3.056186,6.036751 0.401299,1.47318 0.367241,1.88739 0.502229,3.41964 0.03082,1.85151 -0.23032,3.68389 -0.934762,5.40687 -0.234305,0.57308 -0.489344,1.14575 -0.836737,1.65823 -0.974831,1.4381 -1.695595,1.80216 -3.076199,2.85909 -0.759436,0.38245 -1.495393,0.8156 -2.278309,1.14734 -2.580835,1.09358 -5.325242,1.61462 -8.094884,1.93601 -0.838468,0.0973 -1.679388,0.18474 -2.522781,0.2191 -0.800299,0.0326 -1.601875,-0.0123 -2.402811,-0.0184 -2.135793,-0.052 -4.188733,-0.5926 -6.150285,-1.41474 -0.556217,-0.23312 -2.003922,-1.25733 -1.630865,-0.78346 0.425641,0.54067 1.137148,0.83387 1.804038,1.00344 0.464703,0.11815 -0.777822,-0.56093 -1.166736,-0.8414 -1.070724,-1.01882 -2.216486,-2.09934 -2.858222,-3.46222 -0.364837,-0.77482 -0.401651,-1.16315 -0.590804,-2.00361 -0.240332,-1.78943 -0.167497,-3.62565 0.213077,-5.39029 0.189769,-0.78277 0.307813,-1.40239 1.207479,-1.4593 0.0836,0.003 0.170807,-0.0143 0.250785,0.0102 0.102068,0.0313 0.374417,0.20546 0.281316,0.15319 -0.932519,-0.52359 -1.85537,-1.06495 -2.799591,-1.56713 -0.279601,-0.14871 0.54301,0.32677 0.804177,0.50588 0.611143,0.41913 1.338416,0.99591 1.923944,1.4494 1.081461,0.92142 2.228144,1.78525 3.177757,2.84817 0.425188,0.4243 0.644176,0.9895 1.037339,1.43499 1.597324,1.52255 3.571195,2.63494 5.590987,3.50162 1.566254,0.53659 2.785295,0.0668 4.208158,-0.62258 1.765353,-0.95588 2.950086,-2.57426 3.910867,-4.28911 0.476795,-0.97792 0.88201,-2.02715 0.631135,-3.12945 -0.04577,-0.20108 -0.126889,-0.39245 -0.190334,-0.58867 -0.176011,-0.35296 -0.37361,-0.81119 -0.645506,-1.10825 -0.976487,-1.06686 -2.599661,-1.96337 -3.824693,-2.726805 -1.863037,-1.094883 -2.726581,-1.611133 -5.163613,-2.921606 -0.749472,-0.403016 -1.675122,-0.731576 -2.526292,-0.812549 -0.280355,-0.02667 -0.563219,-0.0049 -0.844828,-0.0074 -1.423929,0.06761 -2.808994,0.424857 -4.22266,0.587105 -1.666528,0.139406 -3.340433,0.226653 -5.001722,0.0092 -0.284599,-0.06818 -0.578097,-0.106381 -0.853797,-0.204536 -0.288864,-0.102841 -1.0968,-0.54746 -0.830667,-0.395171 0.801655,0.458735 1.577022,0.982983 2.438766,1.315382 0.35142,0.135551 -0.601106,-0.456153 -0.876733,-0.712865 -1.033533,-0.962596 -1.207036,-1.295955 -2.108683,-2.464292 -2.431225,-3.306815 -4.111002,-7.060128 -5.511225,-10.895351 -0.62151,-1.953807 -1.23062,-3.998738 -1.040699,-6.076526 0.03545,-0.38785 0.124577,-0.768909 0.186866,-1.153364 0.140624,-0.46287 0.25343,-0.935122 0.421874,-1.388607 0.829949,-2.234396 2.075344,-4.437714 3.68058,-6.209253 0.397303,-0.438464 0.856245,-0.816853 1.284368,-1.225277 0.466323,-0.335275 0.90426,-0.714052 1.398968,-1.005819 2.364956,-1.394796 5.227927,-1.816902 7.929215,-1.803609 0.801804,0.0039 1.601766,0.07726 2.402646,0.115893 3.158197,0.272232 6.242659,0.989428 9.16613,2.217176 1.473025,0.618615 2.081178,0.976495 3.450918,1.701869 -0.626192,-0.348117 -1.21036,-0.785908 -1.878573,-1.044355 -0.391483,-0.151416 0.696862,0.468595 1.034544,0.717907 0.984967,0.72721 1.827528,1.577411 2.653578,2.474748 0.64902,0.699014 1.273434,1.428663 1.5988,2.335544 0.202404,0.896649 -0.451532,1.064133 -1.166786,1.321395 -1.545116,0.384029 -3.19234,0.50881 -4.778832,0.333621 -0.404998,-0.04472 -0.803863,-0.133789 -1.205791,-0.200684 -2.580545,-0.507391 -5.078955,-1.339411 -7.594553,-2.091124 -0.83639,-0.272444 -1.673682,-0.541337 -2.515256,-0.797253 0,0 3.06805,2.368564 3.06805,2.368564 v 0 c 0.816208,0.240932 1.629379,0.491566 2.443308,0.7401 2.524234,0.740227 5.029415,1.574329 7.622517,2.047766 0.411636,0.05759 0.820962,0.135234 1.23491,0.17276 1.650783,0.149659 3.35738,0.03476 4.956646,-0.399613 0.921494,-0.360977 1.595943,-0.712126 1.501611,-1.814037 -0.276436,-0.992192 -0.8984,-1.787784 -1.605449,-2.524024 -0.587573,-0.647377 -1.172647,-1.300956 -1.832814,-1.876957 -1.917028,-1.672632 -4.212132,-2.833851 -6.41274,-4.07263 -1.350452,-0.685999 -1.952337,-1.025676 -3.404592,-1.608871 -2.947644,-1.183709 -6.047743,-1.863836 -9.21335,-2.112388 -0.811845,-0.03342 -1.623002,-0.102762 -2.435529,-0.100275 -2.771916,0.0085 -5.725194,0.457682 -8.134164,1.922624 -0.502969,0.305864 -0.94488,0.702371 -1.41732,1.053558 -0.434873,0.424492 -0.900357,0.819737 -1.304618,1.273477 -1.598772,1.794457 -2.89074,4.071347 -3.801548,6.28823 -0.189409,0.461015 -0.327481,0.941485 -0.491222,1.412229 -0.0741,0.399444 -0.178311,0.794465 -0.222307,1.198338 -0.233135,2.14009 0.4025,4.24366 1.066606,6.247886 1.455573,3.835379 3.136193,7.611158 5.48141,10.996557 0.796621,1.11184 1.045163,1.561015 1.970546,2.499273 1.365759,1.384755 3.415117,2.332175 4.967481,3.19999 0.275244,0.153871 0.57939,0.253346 0.88196,0.342156 0.286734,0.08416 0.586187,0.116533 0.879282,0.174803 1.690753,0.16592 3.390897,0.07962 5.081817,-0.06206 1.391447,-0.172451 2.756998,-0.55013 4.166283,-0.552093 0.951883,0.06914 1.492673,0.174156 2.382628,0.542269 1.472899,0.609237 1.713844,0.967239 -1.466961,-1.006637 -0.32295,-0.200408 0.660186,0.376817 0.99028,0.565227 1.034881,0.633979 2.069359,1.266298 3.050003,1.983264 0.247441,0.1809 0.505214,0.35134 0.727665,0.56222 0.280612,0.26601 0.492106,0.68089 0.683252,1.00813 0.07251,0.17443 0.160798,0.34312 0.217525,0.52331 0.3175,1.00856 -0.04885,2.00571 -0.46391,2.92481 -0.888622,1.67643 -2.046346,3.20952 -3.77793,4.08363 -1.427575,0.63377 -2.571922,0.95749 -4.065281,0.31071 -1.366197,-0.68017 -1.127683,-0.57419 2.418734,1.45598 0.144989,0.083 -0.282906,-0.17827 -0.41787,-0.27674 -0.226189,-0.16502 -0.440253,-0.34624 -0.654174,-0.52688 -0.0788,-0.0666 -0.152908,-0.13848 -0.229362,-0.20772 -0.04995,-0.0447 -0.307412,-0.27016 -0.360016,-0.33595 -0.269309,-0.33679 -0.364556,-0.79874 -0.710062,-1.08532 -0.956371,-1.13195 -2.159778,-2.00719 -3.278103,-2.97055 -0.852546,-0.66627 -1.682414,-1.41859 -2.620246,-1.96645 -0.973701,-0.56881 -2.900724,-2.48418 -4.597065,-2.25027 -0.958237,0.29646 -1.208666,0.95026 -1.389347,1.88587 -0.364941,1.82483 -0.400321,3.7181 -0.213096,5.5661 0.142587,0.76175 0.214689,1.38109 0.516084,2.09997 0.602514,1.43709 1.831464,2.54237 2.878907,3.6439 0.391861,0.29517 0.757386,0.62902 1.175584,0.88551 3.200119,1.96277 6.413079,3.91431 10.185609,4.47353 0.710631,0.10534 1.433025,0.10393 2.149538,0.1559 0.801873,-0.007 1.605031,0.0249 2.405613,-0.0211 0.835297,-0.048 1.666875,-0.15185 2.496463,-0.26052 3.677205,-0.48165 7.306262,-1.30368 10.547408,-3.18172 1.435042,-1.08704 2.203079,-1.4748 3.219476,-2.96512 0.35932,-0.52686 0.615474,-1.12011 0.858816,-1.70959 0.726059,-1.75882 1.042782,-3.62694 1.021737,-5.5238 -0.103405,-1.52258 -0.06711,-2.0152 -0.43551,-3.48642 -0.564211,-2.25319 -1.798738,-4.25383 -3.052109,-6.178901 -0.840986,-1.060773 -1.562134,-2.046066 -2.550311,-2.98291 -0.477916,-0.453089 -0.971362,-0.899234 -1.524473,-1.256671 -2.714876,-1.754441 -5.05169,-3.284037 -8.156715,-3.907303 -1.422662,-0.184975 -1.832922,-0.291012 -3.248869,-0.274973 -1.828274,0.02072 -3.625414,0.437766 -5.439659,0.610327 -1.3149,0.136078 -2.654067,0.302983 -3.978537,0.176194 -1.35945,-0.130138 -2.635427,-0.569272 -3.838654,-1.203893 0.645906,0.383227 1.258226,0.829757 1.937716,1.14968 0.441097,0.207685 -0.826874,-0.518821 -1.217491,-0.810575 -1.650466,-1.232749 -2.951205,-2.796336 -3.609237,-4.768387 -0.318447,-1.438658 -0.483037,-1.783511 -0.447172,-3.295134 0.04291,-1.808585 0.516657,-3.597936 1.414139,-5.173739 0.265632,-0.466397 0.619152,-0.876924 0.928728,-1.315386 0.80246,-0.7415 1.125699,-1.121844 2.064633,-1.676514 1.122109,-0.662879 2.424264,-1.008814 3.656087,-1.396116 z" />
    <path
       style="fill:url(#linearGradient15);fill-opacity:1;stroke-width:0.264583"
       id="path3"
       d="m 62.230806,62.956606 c 0.305726,-1.620031 0.654114,-3.233581 1.072939,-4.828484 0.09231,-0.351523 0.157442,-0.713492 0.296851,-1.049132 0.09442,-0.227327 0.264952,-0.41494 0.397426,-0.622411 0.203512,0.143005 0.858901,0.442524 0.610536,0.429009 -0.719926,-0.03917 -1.844114,-1.183476 -2.101953,-0.510164 -0.323315,0.844296 0.983298,1.51988 1.410086,2.316887 1.573549,2.938513 2.720737,6.071153 3.870918,9.189678 1.808575,5.265795 3.178905,10.668103 4.625766,16.040936 1.576189,5.703411 3.153032,11.406256 4.600416,17.143935 0.718556,3.23874 1.520238,6.46093 2.096455,9.72933 0.18482,0.98046 0.236011,1.97419 0.240261,2.96937 0.02088,0.72275 -0.17521,1.56404 0.389225,2.13645 0.09189,0.0932 0.208593,0.15814 0.312886,0.23721 2.253303,1.57173 3.186099,2.18524 5.388412,2.20413 0.540848,-0.0502 0.98304,-0.34827 1.435615,-0.62327 0.640536,-0.42815 0.961197,-0.87004 1.213062,-1.59339 0.239242,-0.91135 0.210836,-1.8621 0.219112,-2.79656 0.03612,-1.04271 -0.08213,-2.07198 -0.319624,-3.08468 -0.254101,-0.91142 -0.534967,-1.81659 -0.745924,-2.73927 -0.134829,-0.80573 -0.220695,-1.61553 -0.373542,-2.4187 -0.319217,-1.10579 -0.701183,-2.18524 -0.962419,-3.30895 -0.265025,-1.28748 -0.607621,-2.5574 -0.841272,-3.851302 -0.16877,-0.785379 -0.142753,-1.546628 0.03612,-2.324672 0.246734,-0.958392 0.762786,-1.423974 1.562089,-1.941414 0.74876,-0.464757 1.530866,-0.762077 2.398348,-0.893668 0.75307,-0.136871 1.491757,-0.05085 2.240182,0.04953 1.226388,0.482259 3.191115,1.552175 -2.293197,-1.38072 -0.176932,-0.09462 0.330086,0.22851 0.488958,0.351057 0.459549,0.354483 0.616397,0.522226 1.058817,0.934646 1.803157,1.9281 2.996639,4.315851 4.233765,6.622835 0.790612,1.619998 1.634987,3.220638 2.289582,4.902148 0.551604,1.35405 0.875427,2.77627 1.258443,4.1819 0.35146,1.37131 0.784003,2.71923 1.196057,4.07293 0.185793,0.862 0.507998,1.63321 1.062268,2.31829 1.38338,1.38203 3.16351,2.52727 5.12494,2.70543 0.85808,-0.15836 1.12518,-0.61991 1.2976,-1.4227 0.1917,-1.04099 0.0458,-2.08449 -0.1026,-3.11892 -0.30016,-1.32057 -0.48313,-2.66569 -0.8002,-3.982 -0.26724,-1.14734 -0.66898,-2.25462 -1.03535,-3.37197 -0.40905,-1.47181 -0.7312,-2.97126 -1.02787,-4.47021 -0.27795,-1.271216 -0.49712,-2.553082 -0.71521,-3.835409 -0.17546,-1.198748 -0.44748,-2.382711 -0.79216,-3.543647 -0.3847,-1.035926 -0.82375,-2.050373 -1.34148,-3.026701 -0.44024,-0.788942 -0.92962,-1.542807 -1.496212,-2.24613 -1.041115,-1.26637 -2.452831,-2.124588 -3.815784,-2.999462 -1.992614,-1.235578 -1.509511,-0.949066 -4.950129,-2.885892 -0.823881,-0.463786 -1.70298,-0.778378 -2.62186,-0.981925 -1.048094,-0.197911 -2.111404,-0.05618 -3.134918,0.201859 -0.894307,0.261808 -1.702422,0.647705 -2.448944,1.203047 -0.819486,0.593873 -1.637342,1.177316 -2.36929,1.878944 -0.275437,0.285247 -0.501973,0.624202 -0.813438,0.874683 -0.05958,0.04791 -0.118859,0.108429 -0.194048,0.122277 -0.04976,0.0092 -0.183631,-0.08481 -0.139028,-0.06093 1.0966,0.587275 2.196941,1.167538 3.295409,1.751304 C 82.450768,87.536088 82.370301,87.470897 82.3185,87.384799 82.151961,87.107997 81.84864,86.292425 81.76904,86.085978 81.264172,84.77656 80.822537,83.45045 80.382495,82.118024 79.240226,78.540188 77.962844,75.008043 76.63113,71.496946 76.064239,70.056419 75.536453,68.590982 74.825928,67.211918 74.307112,66.20494 73.813283,65.384343 73.240166,64.394942 c -1.395203,-2.352554 -2.84708,-4.670232 -4.314499,-6.978121 -1.606455,-2.509012 -1.710926,-2.0603 -5.111912,-4.039552 -0.852466,-0.155512 -1.726075,-0.154044 -2.590212,-0.158031 -0.718976,0.01262 -1.268474,0.328012 -1.776267,0.811258 -0.08464,0.111278 -0.264824,0.323842 -0.301448,0.467423 -0.09885,0.387541 -0.113691,1.062477 -0.127653,1.430668 -0.01249,0.329309 -0.04025,1.50236 -0.04854,1.839188 -0.01725,0.708631 -0.03011,1.417354 -0.04216,2.126088 0,0 3.467981,1.767877 3.467981,1.767877 v 0 c -0.0092,-0.714557 -0.01802,-1.429178 -0.0094,-2.14381 0.01712,-0.898702 -0.02487,-2.189805 0.194185,-3.054638 0.03234,-0.127672 0.151146,-0.255678 0.228505,-0.353595 0.465791,-0.411342 0.962173,-0.60113 1.593276,-0.578072 0.831567,0.0067 1.708446,-0.02156 2.484284,0.315754 -6.263434,-3.704416 -3.35802,-2.276904 -2.518722,-1.347983 0.38309,0.423997 0.693941,0.910386 1.029679,1.370322 1.552281,2.301263 3.076506,4.622429 4.472892,7.022753 1.279059,2.276925 2.464805,4.608026 3.40537,7.048161 1.379159,3.485272 2.670053,7.004746 3.751218,10.595517 0.571113,1.87569 1.174456,3.740259 1.815269,5.593236 3.72986,2.081485 3.058094,2.943008 4.854977,0.845207 0.722998,-0.690084 1.546296,-1.241637 2.352376,-1.828269 0.716195,-0.512281 1.508553,-0.843015 2.357768,-1.075285 0.993722,-0.214624 2.009124,-0.314203 3.008805,-0.06473 0.618929,0.171272 1.202335,0.373057 1.783482,0.651457 0.244951,0.117345 0.956045,0.514831 0.724614,0.372663 -0.520578,-0.319792 -4.042024,-2.381517 -1.593022,-0.906484 1.337665,0.838417 2.729458,1.659472 3.781486,2.857587 0.587624,0.669227 1.060918,1.418815 1.526884,2.176217 0.543105,0.950002 0.964795,1.948635 1.378008,2.960314 0.390147,1.133909 0.63831,2.319195 0.830453,3.501387 0.221177,1.286365 0.424717,2.5766 0.719097,3.849069 0.30223,1.507452 0.6613,3.004912 0.99884,4.503992 0.3431,1.1164 0.76818,2.20775 1.03263,3.34849 0.36624,1.29348 0.53184,2.63326 0.83015,3.94323 0.1225,0.99056 0.30501,1.98639 0.12779,2.98361 -0.12489,0.62924 -0.28306,0.95391 -0.99455,0.91858 -0.23101,-0.0394 -0.3802,-0.0551 -0.60329,-0.13228 -0.0972,-0.0336 -0.37189,-0.17435 -0.28374,-0.12134 5.60438,3.37043 3.63662,2.25211 2.54513,1.435 -0.63947,-0.66754 -0.95694,-1.26946 -1.15975,-2.18175 -0.42996,-1.356 -0.89195,-2.70243 -1.24394,-4.08174 -0.39244,-1.40779 -0.65221,-2.85184 -1.22209,-4.20659 -0.654588,-1.7258 -1.548557,-3.34637 -2.373525,-4.99444 -1.248617,-2.292181 -2.418472,-4.669328 -4.093009,-6.688138 -1.641848,-1.66905 -3.668011,-3.214418 -5.982187,-3.731734 -0.768432,-0.08624 -1.532593,-0.09674 -2.29608,0.05458 -0.895917,0.18076 -1.708343,0.536194 -2.477932,1.032721 -0.871027,0.585759 -1.429996,1.148028 -1.713031,2.1912 -0.214884,0.82313 -0.314966,1.630275 -0.117232,2.470282 0.250547,1.30741 0.642485,2.581098 0.892019,3.888719 0.225322,1.11625 0.511709,2.20687 0.913257,3.27296 0.149259,0.8063 0.250264,1.61667 0.370245,2.42747 0.18393,0.93354 0.473196,1.84228 0.74985,2.75192 0.23907,0.98495 0.406805,1.9823 0.367062,3.00193 -0.0093,0.89165 0.0033,1.79639 -0.192053,2.67128 -0.207844,0.64444 -0.497473,0.9887 -1.078442,1.34372 -0.416605,0.23231 -0.814313,0.47237 -1.31023,0.44565 -1.975699,-0.0743 -3.310239,-1.1839 1.469258,1.53533 -0.307922,-0.13391 -0.728702,-0.27373 -0.851712,-0.63428 -0.146715,-0.43003 0.03561,-0.93713 -0.03118,-1.37552 -0.0039,-1.03062 -0.0072,-2.05978 -0.268787,-3.06624 -0.722027,-3.31543 -1.648212,-6.58206 -2.389831,-9.89308 -1.478441,-5.734329 -3.097744,-11.429885 -4.614648,-17.154151 -1.211924,-4.669316 -0.199639,-0.833276 -1.428086,-5.32085 -0.990679,-3.618987 -1.928159,-7.259751 -3.244093,-10.779109 -1.04503,-2.794532 -1.237462,-3.400917 -2.420903,-6.184103 -0.168624,-0.396568 -2.02188,-4.763929 -2.579907,-5.323031 -1.283097,-1.285568 -2.805576,-2.323626 -4.342728,-3.291194 -0.252053,-0.158657 -0.595651,-0.0032 -0.893477,-0.0048 -0.133136,0.246349 -0.302263,0.476412 -0.399412,0.739043 -0.128159,0.346466 -0.184627,0.715409 -0.271413,1.074478 -0.385439,1.594739 -0.730435,3.201413 -1.20742,4.772474 z" />
    <circle
       id="path4"
       style="fill:#d40000;stroke:#000000;stroke-width:0.264583"
       cx="117.16036"
       cy="88.916344"
       r="0.034834031" />
    <path
       style="fill:url(#linearGradient17);fill-opacity:1;stroke-width:0.264583"
       id="path5"
       d="m 118.91724,88.10295 c 0.22305,-1.667807 0.34153,-3.547997 1.30237,-4.999641 0.67344,-1.01745 1.07871,-1.109374 2.10485,-1.74851 0.64615,-0.115755 1.28202,-0.346908 1.93846,-0.347263 3.68461,-0.0021 7.55311,1.791923 10.62024,3.643853 0.55809,0.336978 0.99438,0.843454 1.486,1.271629 1.27509,1.110528 2.54271,2.229607 3.81405,3.344413 1.06174,1.192004 2.2017,2.318687 3.18521,3.57601 2.641,3.376277 4.52141,7.177089 5.44,11.370999 0.24794,1.13202 0.43361,2.28532 0.48016,3.44324 0.0423,1.05183 -0.14342,2.10046 -0.21513,3.15069 -0.3019,0.94824 -0.45404,1.95799 -0.90572,2.84472 -0.47364,0.92984 -1.1182,1.77805 -1.83521,2.53623 -2.44645,2.5869 -5.89767,4.00272 -9.40745,4.34037 -1.26544,0.12173 -2.54231,-0.0347 -3.81347,-0.052 -2.9586,-0.65272 -4.75955,-0.7281 -7.29695,-2.59099 -0.2969,-0.21797 -0.11095,-0.75344 -0.31757,-1.05836 -0.76973,-1.13594 -1.79805,-2.0806 -2.57556,-3.21122 -1.77041,-2.57442 -2.17014,-3.85998 -3.36979,-6.65104 -0.88296,-2.59652 -1.53145,-5.33114 -1.39319,-8.097717 0.0355,-0.710814 0.087,-1.436048 0.30679,-2.112947 0.55799,-1.718154 1.23998,-2.086531 2.4825,-3.300484 0.6178,-0.364268 1.19974,-0.797676 1.85339,-1.092806 2.32242,-1.048591 5.06321,-1.154978 7.4845,-0.384135 0.45204,0.143909 0.87124,0.375663 1.30687,0.563494 -0.73979,-0.387218 -1.40247,-0.988693 -2.21936,-1.161654 -0.37248,-0.07887 0.54118,0.541087 0.76,0.852663 0.77891,1.109101 1.05063,2.466903 1.19894,3.782181 -0.002,0.245071 0.0355,0.493594 -0.006,0.735208 -0.16887,0.994392 -1.16743,1.462834 -2.06505,1.606625 -0.30423,0.04873 -0.61499,0.03894 -0.92249,0.05841 -0.8605,-0.107098 -1.17582,-0.08851 -1.9916,-0.425056 -0.33915,-0.139914 -1.30292,-0.675203 -0.97541,-0.509878 0.78209,0.394782 1.49736,0.955704 2.33919,1.198282 0.34074,0.09819 -0.53058,-0.473845 -0.76089,-0.743485 -0.2137,-0.250195 -0.37687,-0.539467 -0.5653,-0.809201 -0.12181,-0.269621 -0.29045,-0.522664 -0.36543,-0.808863 -0.10738,-0.409835 -0.11378,-1.186805 0.20445,-1.542095 0.55651,-0.621334 1.62657,-0.666078 2.34453,-0.527733 0.74337,0.143243 1.43095,0.494842 2.14642,0.742265 0.80065,0.44486 1.65944,0.79828 2.40196,1.334582 0.17944,0.129609 -0.80032,-0.247123 -0.65969,-0.07618 0.54717,0.665112 1.34231,1.081971 1.97122,1.670405 1.06407,0.995592 1.93333,1.928407 2.60464,3.224309 0.2399,0.4631 0.35986,0.97906 0.5398,1.46859 0.25453,1.8125 -0.0215,2.90194 -1.36098,4.17446 -0.24766,0.23529 -0.4826,0.5151 -0.80068,0.63969 -0.34925,0.1368 -0.74641,0.075 -1.11962,0.11249 -0.52169,-0.24982 -1.14851,-0.34814 -1.56506,-0.74945 -0.24406,-0.23513 1.18419,0.48387 0.9965,0.2017 -0.54066,-0.81283 -1.46865,-1.28769 -2.17033,-1.96642 -1.05552,-1.021 -2.56889,-2.65671 -3.52158,-3.82148 -0.42923,-0.52478 -0.81787,-1.08149 -1.22681,-1.62224 -0.68292,-1.170813 -2.16628,-2.805681 -1.74096,-4.316904 0.16706,-0.593572 0.46466,-0.698926 0.92522,-1.058379 1.0027,-0.49032 0.48663,-0.279527 1.5484,-0.631909 0,0 -3.18721,-2.153947 -3.18721,-2.153947 v 0 c -1.1082,0.415788 -0.566,0.169873 -1.62492,0.741389 -0.55024,0.47039 -0.87157,0.597681 -1.07865,1.32702 -0.49171,1.731825 1.013,3.323231 1.82218,4.657778 0.42595,0.557181 0.83093,1.131044 1.27786,1.671545 0.90953,1.099957 2.60292,2.917647 3.58448,3.887977 0.68571,0.67786 1.33445,1.40604 2.11093,1.97767 1.65913,1.22143 3.39018,2.34978 5.17206,3.38394 0.54496,0.31628 1.18373,0.43222 1.7756,0.64833 0.41784,-0.0886 0.86614,-0.086 1.25354,-0.26589 0.3259,-0.15137 0.56686,-0.44448 0.82159,-0.69793 1.42072,-1.41358 1.73075,-2.59429 1.47255,-4.56989 -0.18635,-0.52324 -0.3093,-1.07359 -0.55904,-1.5697 -0.69203,-1.37468 -1.55461,-2.30846 -2.67278,-3.36598 -2.86299,-2.707675 -6.33696,-4.654815 -9.81917,-6.449949 -0.77862,-0.238101 -1.52967,-0.600409 -2.33588,-0.714304 -0.96185,-0.135885 -2.02843,0.05661 -2.69055,0.828546 -0.34734,0.404958 -0.42101,1.320038 -0.3258,1.804807 0.0608,0.309663 0.23513,0.585719 0.3527,0.878576 0.18251,0.293846 0.33619,0.6077 0.54754,0.881538 1.21494,1.574139 3.34485,2.460459 4.90957,3.377126 0.95369,0.5587 2.02255,0.76739 3.11374,0.78698 0.32741,-0.0376 0.66007,-0.0434 0.98221,-0.11293 1.05397,-0.22753 2.11343,-0.879443 2.32854,-2.017197 0.0486,-0.257206 0.007,-0.52348 0.0102,-0.785222 -0.15179,-1.377871 -0.42374,-2.799707 -1.15668,-4.005302 -0.20818,-0.342421 -0.39973,-0.726689 -0.72771,-0.956945 -1.34965,-0.947513 -2.83178,-1.690661 -4.24767,-2.535994 -0.43916,-0.162476 -0.86519,-0.366181 -1.31747,-0.487424 -2.48521,-0.66621 -5.22997,-0.441515 -7.5584,0.6643 -0.67157,0.318942 -1.26869,0.775449 -1.90304,1.163172 -1.28389,1.279954 -2.02236,1.707219 -2.59804,3.506084 -0.2247,0.702156 -0.2686,1.455097 -0.29584,2.191826 -0.10491,2.837222 0.59217,5.648102 1.521,8.300172 1.21929,2.79591 1.67953,4.17862 3.42593,6.77047 0.77213,1.14595 1.52326,2.34394 2.55115,3.26742 2.27342,2.0425 6.24922,4.95349 9.49491,6.04315 1.23411,0.41433 2.55051,0.52316 3.82577,0.78474 1.29151,0.002 2.59036,0.14266 3.87452,0.005 3.58574,-0.38413 7.11288,-1.85794 9.6199,-4.4968 0.74487,-0.78404 1.42334,-1.65572 1.91486,-2.61903 0.46551,-0.91236 0.61181,-1.95503 0.91772,-2.93255 0.0656,-1.07975 0.24973,-2.1588 0.19678,-3.23925 -0.0581,-1.18479 -0.26575,-2.36238 -0.52801,-3.51924 -0.60764,-2.68042 -1.60779,-5.38109 -2.9638,-7.773872 -1.91403,-3.377475 -3.19278,-4.503989 -5.77351,-7.418149 -4.93765,-4.398624 -3.76862,-3.714343 -10.63356,-7.758991 -3.23254,-1.904532 -7.26946,-3.789934 -11.13348,-3.749378 -0.71249,0.0075 -1.39874,0.272587 -2.0981,0.408879 -1.11373,0.719299 -1.50474,0.799555 -2.23572,1.915591 -0.97754,1.492483 -1.08033,3.387923 -1.48385,5.073078 z" />
    <circle
       id="path6"
       style="fill:#d40000;stroke:#000000;stroke-width:0.264583"
       cx="154.55753"
       cy="83.424454"
       r="0.034834031" />
    <path
       style="fill:url(#linearGradient19);fill-opacity:1;stroke-width:0.264583"
       id="path7"
       d="m 153.96923,84.677172 c 2.13447,3.227202 4.29111,6.443242 6.28979,9.757423 0.46482,0.770755 0.94156,1.535444 1.36678,2.328738 0.41736,0.778635 0.77267,1.588964 1.15901,2.383446 0.32444,1.078071 0.70886,2.139891 0.97334,3.234221 1.19106,4.92833 1.38446,10.10412 1.19905,15.14861 -0.053,1.44117 -0.17516,2.87895 -0.26274,4.31843 -0.39764,4.68643 -1.09421,9.35433 -2.47319,13.85948 -0.58544,1.91263 -0.80545,2.3684 -1.50879,4.12888 -0.67661,1.67871 -1.55234,3.2582 -2.70812,4.65029 -0.22605,0.31445 -0.98106,1.27542 -0.9589,1.65895 0.0109,0.18863 0.11096,0.36123 0.16643,0.54185 0.16149,0.16914 0.30953,0.35224 0.48447,0.50743 0.18431,0.1635 0.37876,0.31833 0.58977,0.44552 1.13584,0.68464 3.00226,1.93151 4.56761,2.56126 0.73255,0.26444 0.38489,0.13073 1.04435,0.39754 0.2079,0.0696 0.61405,0.47294 0.87596,0.29079 0.51177,-0.35594 0.79054,-1.24361 1.0308,-1.75532 1.1246,-2.35285 2.45763,-4.6002 3.79259,-6.83842 0.89306,-1.43095 1.79488,-2.85688 2.45331,-4.41553 0.53407,-1.26424 0.64654,-1.72533 1.06802,-3.04869 0.28543,-1.20381 0.59258,-2.34705 0.73677,-3.58068 0.27979,-2.3936 0.19613,-4.88666 0.15435,-7.29412 -0.0529,-1.83845 -0.13475,-3.67589 -0.16565,-5.51494 -0.001,-0.95958 -0.13594,-1.91209 -0.20552,-2.86824 -0.0228,-0.95288 -0.15751,-1.92398 -0.0215,-2.87219 0.0638,-0.0703 0.11049,-0.16115 0.1914,-0.21076 0.44358,-0.27196 1.22131,-0.16025 1.69475,-0.16812 1.08102,-0.018 0.73955,-0.0103 1.85583,-0.0685 2.04121,-0.50732 4.01505,-1.29429 5.85637,-2.31136 1.27651,-0.7051 1.90394,-1.1626 3.10732,-1.96947 1.31329,-0.92131 2.60884,-1.96261 3.29492,-3.46495 0.77619,-1.69965 0.79232,-3.57014 0.83354,-5.391575 -0.19426,-4.429651 -2.02857,-8.541594 -3.76348,-12.553024 -1.61199,-3.55755 -3.31617,-7.069918 -5.16525,-10.509988 -1.14448,-1.941337 -2.26433,-3.978846 -3.86386,-5.596098 -0.25414,-0.256964 -0.53376,-0.487416 -0.80065,-0.731121 -1.91354,-1.402908 -4.18159,-3.110037 -6.6222,-3.411175 -1.05701,-0.130421 -1.5096,-0.05249 -2.59042,0.0094 -1.7837,0.199686 -3.53839,0.654883 -5.16589,1.42113 -0.93234,0.438951 -1.28681,0.70935 -2.14439,1.265314 -0.33073,0.263184 -0.67313,0.512342 -0.9922,0.789548 -0.38476,0.33427 -0.74569,0.695005 -1.11765,1.043459 -1.34036,1.255662 -2.66788,2.526588 -3.97491,3.816916 -0.87031,0.937517 -1.80105,1.823778 -2.64982,2.781247 -0.51294,0.447532 -0.86371,0.988962 -1.11661,1.615451 -0.26554,0.833633 -0.0315,1.733624 0.13702,2.564196 0.19511,0.961832 0.24243,1.107268 0.47672,2.043231 0.18992,0.728179 0.38359,1.454304 0.60371,2.17387 0,0 3.52227,1.653365 3.52227,1.653365 v 0 c -0.26175,-0.716462 -0.47478,-1.445551 -0.67997,-2.180423 -0.25919,-0.960771 -0.49409,-1.921849 -0.62916,-2.909604 -0.018,-0.131387 -0.0949,-0.880248 -0.0731,-1.101583 0.0109,-0.110789 0.0558,-0.21554 0.0837,-0.32331 0.22749,-0.590441 0.58714,-1.066154 1.04094,-1.50573 0.81548,-0.964555 1.68291,-1.888295 2.52821,-2.82619 1.89373,-1.978231 3.82974,-3.940688 6.02388,-5.589023 0.86405,-0.551575 1.15812,-0.780558 2.09714,-1.212192 1.60211,-0.736428 3.32313,-1.170985 5.07746,-1.3233 1.22919,-0.02326 2.29741,-0.03747 3.47975,0.352891 0.28301,0.09344 1.07474,0.50324 0.82937,0.334055 -0.52284,-0.360514 -4.04388,-2.457871 -1.67048,-0.916247 0.72946,0.619768 0.97407,0.780606 1.60994,1.515785 1.25007,1.445305 2.244,3.102316 3.21673,4.737862 1.89043,3.438432 3.60338,6.964553 5.26238,10.520179 1.75406,3.945147 3.52355,8.014113 3.77034,12.381061 -0.0352,1.752981 -0.0374,3.550743 -0.79067,5.185203 -0.66635,1.4459 -1.92081,2.45513 -3.1768,3.3582 -0.49448,0.33217 -0.97856,0.68038 -1.48343,0.99653 -2.29015,1.43412 -4.81363,2.57117 -7.48765,3.03104 -2.01314,0.0723 0.0558,0.006 -1.87357,0.045 -0.86312,0.0175 -1.74092,-0.0262 -2.23576,0.80083 -0.16019,0.97227 -0.002,1.97502 -0.007,2.95626 0.0642,0.95707 0.18966,1.90884 0.23557,2.86649 0.0846,1.86275 0.19516,3.72402 0.30401,5.58549 0.17271,3.61505 0.27416,7.27263 -0.80465,10.77531 -0.42044,1.28449 -0.54064,1.76355 -1.08012,2.98537 -0.67774,1.53495 -1.60851,2.9329 -2.46158,4.37164 -1.32723,2.25212 -2.61433,4.52893 -3.85516,6.82948 -0.0355,0.0635 -0.60551,1.27851 -0.88705,1.295 -0.1765,0.0103 -0.60404,-0.40275 -0.76454,-0.34558 -0.23418,-0.0898 -0.79579,-0.30222 -1.00556,-0.39624 -0.20307,-0.091 -0.78913,-0.41016 -0.59965,-0.29345 5.073,3.12461 2.62039,1.60629 1.57656,0.78481 -0.0973,-0.0787 -0.24403,-0.12041 -0.29207,-0.23598 -0.0997,-0.23993 0.71243,-1.33556 0.8689,-1.54651 1.11237,-1.47812 1.90266,-3.15073 2.52978,-4.88791 0.60987,-1.72582 0.87637,-2.39364 1.38461,-4.23816 1.26313,-4.58424 1.88766,-9.30645 2.27693,-14.03767 0.18485,-2.78258 0.43004,-5.73086 0.42254,-8.52456 -0.0129,-4.79307 -0.66617,-9.59762 -1.98992,-14.20314 -0.38537,-0.805026 -0.73353,-1.628944 -1.15612,-2.415074 -0.433,-0.805516 -0.93109,-1.574379 -1.40789,-2.354767 -1.97104,-3.226065 -4.10364,-6.351858 -5.9876,-9.631336 z" />
    <path
       style="fill:#d40000;stroke-width:0.264583"
       id="path8"
       d="m 168.39356,79.605263 c -1.11704,0.892466 -2.14791,1.888056 -3.07145,2.97879 -1.04421,1.292318 -1.2273,2.906438 -1.38351,4.502293 -0.11223,1.27067 -0.13518,2.551774 0.22161,3.788783 0.30518,1.058032 0.55713,1.503908 1.02139,2.51923 1.0286,1.931715 2.18456,3.825275 3.65969,5.451378 1.4516,1.263163 3.1434,2.709223 5.13375,2.641583 0.22598,-0.008 0.76441,-0.0931 0.98676,-0.12579 0.24761,-0.0599 0.68692,-0.14924 0.91894,-0.27132 0.72425,-0.38105 1.23399,-1.115454 1.68386,-1.769012 0.65529,-0.974651 1.09314,-2.02814 1.35096,-3.168131 0.2498,-1.047547 0.34116,-2.113148 0.37207,-3.185991 0.0374,-1.01069 0.0299,-2.023827 -0.13071,-3.023957 -0.30739,-1.322994 -0.8877,-2.557849 -1.51797,-3.753136 -0.8203,-1.671492 -2.15869,-2.948638 -3.49321,-4.208944 -0.85017,-0.766567 -1.61201,-1.638533 -2.54976,-2.302407 0,0 -3.67125,-1.415425 -3.67125,-1.415425 v 0 c 1.06505,0.534111 1.81419,1.512765 2.70663,2.276154 1.319,1.218354 2.63909,2.452908 3.47915,4.066808 0.63047,1.15054 1.2177,2.329426 1.50685,3.619261 0.22841,0.968391 0.24517,1.97113 0.20504,2.961363 -0.0401,1.045958 -0.10998,2.092912 -0.33845,3.117701 -0.26093,1.087528 -0.62851,2.114968 -1.27034,3.045376 -0.65109,0.936109 -1.26149,1.613762 -2.44574,1.751769 -0.46477,0.04866 -0.92718,0.105706 -1.38863,-0.01222 -0.1476,-0.03772 -0.55804,-0.238583 -0.42896,-0.157662 4.69588,2.943983 3.59631,2.192033 2.47268,1.405363 -1.58203,-1.548672 -2.76555,-3.459371 -3.83026,-5.38661 -0.46482,-0.997741 -0.69303,-1.386263 -1.00185,-2.421744 -0.35652,-1.195385 -0.34833,-2.4344 -0.24871,-3.66663 0.14539,-1.517232 0.30865,-3.055419 1.31061,-4.279316 0.88179,-1.085214 1.88907,-2.091261 3.07559,-2.842341 z" />
  </g>
</svg>
